<?xml version="1.0" standalone="no"?>
<!DOCTYPE svg PUBLIC "-//W3C//DTD SVG 20010904//EN"
 "http://www.w3.org/TR/2001/REC-SVG-20010904/DTD/svg10.dtd">
<svg version="1.0" xmlns="http://www.w3.org/2000/svg"
 width="700.000000pt" height="700.000000pt" viewBox="0 0 700.000000 700.000000"
 preserveAspectRatio="xMidYMid meet">
<metadata>
Created by potrace 1.11, written by Peter Selinger 2001-2013
</metadata>
<g transform="translate(0.000000,700.000000) scale(0.100000,-0.100000)"
fill="#000000" stroke="none">
<path d="M395 6981 c-178 -51 -334 -210 -379 -387 -14 -55 -16 -369 -15 -3100
0 -3360 -5 -3086 66 -3213 45 -80 144 -178 222 -219 128 -67 -135 -62 3206
-62 3355 0 3096 -5 3221 65 81 46 173 137 217 216 72 129 67 -135 67 3219 0
3355 5 3090 -67 3219 -45 81 -141 176 -219 218 -129 68 141 63 -3219 62 -2846
0 -3044 -2 -3100 -18z m1597 -1029 c14 -6 39 -27 54 -47 l28 -37 0 -410 c1
-249 -3 -423 -9 -441 -5 -17 -27 -44 -48 -60 l-37 -31 -423 0 -423 0 -32 23
c-66 46 -65 42 -65 496 0 355 2 414 16 441 19 38 38 53 80 68 44 15 820 13
859 -2z m1314 -11 c66 -52 64 -34 64 -487 0 -268 -4 -422 -11 -442 -6 -17 -27
-43 -47 -58 l-36 -28 -421 0 c-467 0 -460 -1 -501 68 -18 29 -19 58 -20 441
-2 380 0 413 17 450 22 47 49 67 104 74 22 3 216 5 432 5 388 -1 392 -1 419
-23z m1288 4 c72 -39 71 -32 72 -490 2 -380 0 -413 -17 -450 -10 -23 -33 -49
-51 -60 -31 -18 -56 -19 -448 -19 -458 0 -455 0 -497 63 l-23 34 0 421 c0 393
1 423 19 449 23 35 55 58 93 66 16 3 207 6 423 5 362 -1 398 -2 429 -19z
m-2586 -1300 c67 -40 67 -43 66 -506 0 -409 -1 -416 -22 -446 -45 -63 -47 -63
-504 -62 -459 1 -452 0 -492 68 -18 31 -19 57 -19 450 0 391 1 419 19 449 10
18 35 40 55 50 33 17 71 18 450 18 393 -1 416 -2 447 -21z m1295 2 c16 -10 37
-32 47 -50 19 -30 20 -53 20 -445 0 -451 0 -455 -58 -497 -26 -19 -45 -20
-452 -23 -408 -2 -426 -1 -457 17 -70 43 -68 29 -69 491 0 228 1 423 4 432 7
27 69 86 94 90 13 2 208 3 433 3 379 0 413 -1 438 -18z m2593 -3 c15 -11 37
-32 48 -47 19 -25 19 -43 19 -445 0 -418 0 -420 -22 -456 -42 -67 -34 -66
-497 -66 -400 0 -418 1 -449 20 -70 43 -68 29 -69 482 -1 224 2 421 7 437 9
37 58 84 94 91 16 3 211 6 435 5 395 0 407 -1 434 -21z m-3902 -1288 c18 -7
44 -28 56 -46 l24 -33 0 -421 c0 -468 1 -461 -68 -502 -29 -18 -58 -19 -441
-20 -381 -2 -413 0 -450 17 -25 11 -47 32 -59 54 -18 34 -20 60 -19 454 0 417
0 419 22 447 52 66 34 64 489 64 329 0 419 -3 446 -14z m2603 -6 c70 -42 68
-27 68 -500 0 -468 2 -453 -63 -497 -25 -17 -58 -18 -452 -18 -473 0 -457 -2
-501 68 -18 31 -19 49 -17 457 3 407 4 426 23 452 42 57 43 58 495 58 394 0
417 -1 447 -20z m1295 2 c14 -9 37 -30 49 -46 22 -28 22 -29 22 -450 0 -469 1
-461 -67 -502 -29 -18 -57 -19 -456 -19 -409 0 -426 1 -452 20 -63 48 -62 38
-62 501 l0 420 23 33 c43 60 45 60 501 61 380 0 417 -2 442 -18z m-2614 -1286
c22 -5 43 -21 63 -48 l29 -41 0 -416 c0 -464 0 -465 -69 -505 -31 -18 -56 -19
-447 -19 -388 0 -416 1 -449 19 -22 12 -43 34 -54 59 -18 37 -19 69 -17 450 1
380 3 412 20 441 21 35 49 55 89 63 41 9 796 6 835 -3z m1318 -10 c17 -10 40
-33 50 -50 18 -29 19 -58 20 -441 1 -225 -3 -421 -8 -435 -13 -35 -55 -77 -87
-86 -14 -4 -211 -7 -437 -7 -456 1 -441 -1 -484 68 -19 31 -20 49 -20 451 0
452 -2 435 52 488 29 28 81 31 492 30 361 0 394 -2 422 -18z m1309 -10 c20
-15 41 -40 47 -54 7 -18 11 -174 11 -443 0 -415 0 -417 -22 -448 -46 -64 -45
-64 -481 -64 -217 0 -411 3 -431 6 -44 9 -88 53 -98 98 -5 26 -7 719 -2 827 1
33 60 92 99 100 18 4 215 7 437 6 l403 0 37 -28z"/>
</g>
</svg>
