<svg id="Layer_1" data-name="Layer 1" xmlns="http://www.w3.org/2000/svg" viewBox="0 0 1811.19 907.03"><defs><style>.cls-1,.cls-2,.cls-3,.cls-4,.cls-5,.cls-7,.cls-8{fill:none;stroke:#fff}.cls-1,.cls-2,.cls-3,.cls-4,.cls-5,.cls-7{stroke-miterlimit:10}.cls-1{stroke-width:.4px}.cls-1,.cls-3{opacity:.38}.cls-2{stroke-width:.95px}.cls-2,.cls-4{opacity:.3}.cls-3{stroke-width:.57px}.cls-4{stroke-width:1.34px}.cls-5{stroke-width:1.02px;stroke-dasharray:5 5;opacity:.25}.cls-7,.cls-8{stroke-width:2.03px}.cls-7{opacity:.25;stroke-dasharray:5 5}.cls-8{stroke-linecap:round;stroke-linejoin:round;stroke-dasharray:21 20}</style></defs><g id="vertical"><path class="cls-1" d="M37.67.48v904M75.17.98v904M112.67.48v904M150.17.98v904M186.67.48v904M224.17.98v904M261.67.48v904M342.67.48v904M380.17.98v904M417.67.48v904M455.17.98v904M491.67.48v904M529.17.98v904M566.67.48v904M644.67.48v904M682.17.98v904M719.67.48v904M757.17.98v904M793.67.48v904M831.17.98v904M868.67.48v904M949.67.48v904M987.17.98v904M1024.67.48v904M1062.17.98v904M1098.67.48v904M1136.17.98v904M1173.67.48v904M1245.67.48v904M1283.17.98v904M1320.67.48v904M1358.17.98v904M1394.67.48v904M1432.17.98v904M1469.67.48v904M1550.67.48v904M1588.17.98v904M1625.67.48v904M1663.17.98v904M1699.67.48v904M1737.17.98v904M1774.67.48v904"/><path class="cls-2" d="M1.17.93h301v905.05h-301zM302.67.48h301v905.05h-301zM604.17.93h301v905.05h-301zM905.67.48h301v905.05h-301zM1207.17.93h301v905.05h-301zM1508.67.48h301v905.05h-301z"/></g><g id="horizontal"><path class="cls-3" d="M1809.17 40.73H2.42M1808.17 78.23H1.42M1809.17 115.73H2.42M1808.17 153.23H1.42M1809.17 189.73H2.42M1808.17 227.23H1.42M1809.17 264.73H2.42M1809.17 339.73H2.42M1808.17 377.23H1.42M1809.17 414.73H2.42M1808.17 452.23H1.42M1809.17 488.73H2.42M1808.17 526.23H1.42M1809.17 563.73H2.42M1809.17 641.73H2.42M1808.17 679.23H1.42M1809.17 716.73H2.42M1808.17 754.23H1.42M1809.17 790.73H2.42M1808.17 828.23H1.42M1809.17 865.73H2.42"/><path class="cls-4" d="M.67 302.48h1809v301H.67zM.67 603.48h1809v301H.67z"/><path class="cls-4" d="M.67 1.98h1809v301H.67z"/></g><g id="right_square" data-name="right square"><rect class="cls-5" x="303.67" y="304.48" width="300" height="298" rx="11.92" ry="11.92"/><circle class="cls-5" cx="316.67" cy="317.48" r="13"/><circle class="cls-5" cx="591.67" cy="317.48" r="13"/><circle class="cls-5" cx="316.67" cy="589.48" r="13"/><circle class="cls-5" cx="591.67" cy="589.48" r="13"/><rect x="1208.67" y="304.48" width="600.5" height="601.5" rx="23.96" ry="23.96" stroke-width="2.05" stroke-dasharray="5 5" opacity=".25" stroke-miterlimit="10" fill="none" stroke="#fff"/><circle class="cls-7" cx="1234.48" cy="330.28" r="25.81"/><circle class="cls-7" cx="1784.37" cy="329.28" r="25.81"/><circle class="cls-7" cx="1234.48" cy="880.22" r="25.81"/><circle class="cls-7" cx="1784.37" cy="879.22" r="25.81"/></g><g id="heavy_lines" data-name="heavy lines"><path class="cls-8" d="M1.17 1.98l604 602"/><path class="cls-8" d="M1207 906c11-5 602-604 602-604" transform="translate(.17 -.02)"/><circle class="cls-8" cx="1659.67" cy="754.48" r="149.5"/><circle cx="455.67" cy="754.48" r="67.5" stroke-width=".91" stroke-dasharray="9.48 9.03" stroke-linecap="round" stroke-linejoin="round" fill="none" stroke="#fff"/><circle class="cls-8" cx="151.67" cy="453.48" r="149.5"/><circle cx="151.67" cy="453.48" r="62.5" stroke-width=".85" stroke-dasharray="8.78 8.36" stroke-linecap="round" stroke-linejoin="round" fill="none" stroke="#fff"/></g></svg>