<svg width="96" height="96" fill="none" xmlns="http://www.w3.org/2000/svg"><path d="M94.622 74.633a4.72 4.72 0 0 1 0 6.667L81.288 94.622a4.72 4.72 0 0 1-6.667 0L1.378 21.367a4.72 4.72 0 0 1 0-6.667L14.7 1.378a4.72 4.72 0 0 1 6.667 0l73.255 73.255z" fill="#7FACFF"/><path d="M38.224 18.234L34.891 14.9l-1.744 1.744-3.416 3.416-3.145 3.145-2.461 2.462a2.36 2.36 0 0 0 1.66 4.028c.601 0 1.202-.236 1.661-.695l5.607-5.607 5.171-5.16zM30.485 13.981l1.743-1.743-3.333-3.334-8.293 8.293-2.462 2.473a2.36 2.36 0 0 0 1.661 4.029c.6 0 1.202-.236 1.661-.695l9.023-9.023c0 .012 0 0 0 0zM87.13 67.142l-3.333-3.333-1.743 1.743-3.416 3.416-3.134 3.145-2.461 2.462a2.36 2.36 0 0 0 1.66 4.028c.601 0 1.202-.235 1.661-.695l5.607-5.607 5.16-5.159zM79.403 62.901l1.743-1.743-3.333-3.334-8.293 8.293-2.462 2.462a2.36 2.36 0 0 0 1.661 4.028c.6 0 1.202-.236 1.66-.695l9.024-9.011zM37.235 78.755a4.72 4.72 0 0 1-6.667 0L17.245 65.433a4.72 4.72 0 0 1 0-6.667L70.746 5.253a4.72 4.72 0 0 1 6.667 0l13.322 13.322a4.72 4.72 0 0 1 0 6.667l-53.5 53.513z" fill="#1665CB"/><path d="M4.018 89.887c-.695 1.838.235 2.768 2.073 2.073l27.21-9.73c1.837-.694 2.273-2.331.977-3.639L17.387 61.7c-1.308-1.308-2.945-.86-3.64.977l-9.73 27.21c-.694 1.838.236 2.768 2.074 2.073l27.21-9.73c1.837-.694 2.273-2.331.977-3.639L17.387 61.7c-1.308-1.308-2.945-.86-3.64.977l-9.73 27.21z" fill="#1665CB"/><path d="M39.086 76.904L19.121 56.94l-5.189 5.189 19.965 19.964 5.189-5.189z" fill="#1665CB"/><path d="M65.044 11.014l-3.334 3.333 8.387 8.387-44.172 44.183-8.422-8.422-3.333 3.334 19.99 19.99 3.333-3.334-8.234-8.246 44.172-44.172 8.269 8.27 3.333-3.334-19.989-19.99z" fill="#fff"/></svg>