<svg width="96" height="97" fill="none" xmlns="http://www.w3.org/2000/svg"><path d="M41.144 36.561c0 2.514-2.057 4.583-4.583 4.583H4.583A4.59 4.59 0 0 1 0 36.561V4.583A4.59 4.59 0 0 1 4.583 0h31.99c2.514 0 4.571 2.057 4.571 4.583v31.978z" fill="#1665CB"/><path d="M75.363 41.224c11.362 0 20.572-9.21 20.572-20.572C95.935 9.29 86.725.08 75.363.08c-11.362 0-20.572 9.21-20.572 20.572 0 11.362 9.21 20.572 20.572 20.572zM22.778 56.687c-1.177-2.4-3.097-2.4-4.263 0l-18 34.972c-1.178 2.4.057 4.366 2.742 4.366h34.779c2.685 0 3.908-1.966 2.742-4.366l-18-34.972c-1.177-2.4-3.097-2.4-4.263 0l-18 34.972c-1.178 2.4.057 4.366 2.742 4.366h34.779c2.685 0 3.908-1.966 2.742-4.366l-18-34.972z" fill="#7FACFF"/><path d="M81.088 75.454l13.737-13.738a3.994 3.994 0 0 0 0-5.657 3.994 3.994 0 0 0-5.657 0L75.43 69.797 61.681 56.059a3.994 3.994 0 0 0-5.657 0 3.994 3.994 0 0 0 0 5.657L69.76 75.454 56.024 89.203a3.994 3.994 0 0 0 0 5.657 4.002 4.002 0 0 0 2.823 1.177 3.935 3.935 0 0 0 2.823-1.177l13.76-13.749 13.738 13.75a4.002 4.002 0 0 0 2.823 1.176 3.935 3.935 0 0 0 2.823-1.177 3.994 3.994 0 0 0 0-5.657L81.088 75.454z" fill="#1665CB"/><path d="M75.432 81.11l13.737 13.75a4.001 4.001 0 0 0 2.823 1.177 3.935 3.935 0 0 0 2.823-1.178 3.994 3.994 0 0 0 0-5.657L81.089 75.453M75.43 69.797L61.681 56.059a3.994 3.994 0 0 0-5.657 0 3.994 3.994 0 0 0 0 5.657L69.76 75.454" fill="#7FACFF"/></svg>