<svg width="96" height="96" fill="none" xmlns="http://www.w3.org/2000/svg"><path d="M92 24H28c-2.2 0-4 1.8-4 4v52c0 2.2 1.8 4 4 4h43.98l9.4 10.98c1.43 1.67 2.6 1.24 2.6-.96V84H92c2.2 0 4-1.8 4-4V28c0-2.2-1.8-4-4-4z" fill="#7FACFF"/><path d="M37.19 43.25h46c1.22 0 2.2-.98 2.2-2.2a2.2 2.2 0 0 0-2.2-2.2h-46c-1.21 0-2.2.99-2.2 2.2 0 1.21.99 2.2 2.2 2.2zM83.19 52.11h-46a2.2 2.2 0 0 0 0 4.4h46c1.22 0 2.2-.98 2.2-2.2 0-1.22-.98-2.2-2.2-2.2zM83.19 64.75h-26.4c-1.22 0-2.2.98-2.2 2.2 0 1.22.98 2.2 2.2 2.2h26.4c1.22 0 2.2-.98 2.2-2.2 0-1.22-.98-2.2-2.2-2.2z" fill="#fff"/><path d="M68 0H4C1.8 0 0 1.8 0 4v52c0 2.2 1.8 4 4 4h8.02v10.02c0 2.2 1.17 2.63 2.6.96L24.02 60H68c2.2 0 4-1.8 4-4V4c0-2.2-1.8-4-4-4z" fill="#1665CB"/><path d="M12.81 19.25h46c1.22 0 2.2-.98 2.2-2.2a2.2 2.2 0 0 0-2.2-2.2h-46c-1.21 0-2.2.99-2.2 2.2 0 1.21.98 2.2 2.2 2.2zM58.81 28.11h-46a2.2 2.2 0 0 0-2.2 2.2c0 1.21.99 2.2 2.2 2.2h46a2.2 2.2 0 0 0 0-4.4zM39.21 40.75h-26.4a2.2 2.2 0 0 0 0 4.4h26.4c1.22 0 2.2-.98 2.2-2.2a2.2 2.2 0 0 0-2.2-2.2z" fill="#fff"/></svg>