<svg width="168" height="168" xmlns="http://www.w3.org/2000/svg"><g fill="none" fill-rule="evenodd"><path stroke="#0B63CE" stroke-width="8" fill="#E1EBFF" d="M68 140h96V44L124 4H68v24.258z"/><path d="M80 92h64M80 68h64m-64 48h40.012" stroke="#0B63CE" stroke-width="8" stroke-linecap="square"/><path d="M121 6.751v31.987a8 8 0 0 0 8 8h32.148L121 6.751z" fill="#FFF"/><path stroke="#0B63CE" stroke-width="8" d="M124 4v40h40"/><path stroke="#0B63CE" stroke-width="8" fill="#FFF" d="M4 164h96V28H4z"/><path d="M24 116h56M64 92h16M64 68h16" stroke="#0B63CE" stroke-width="8" stroke-linecap="square"/><g stroke="#53E6C1" stroke-width="8"><path d="M24 68v24" stroke-linecap="square"/><path d="M24.8 66.5l22.2 27"/><path d="M48 68v24" stroke-linecap="square"/></g><path d="M24 140h32" stroke="#0B63CE" stroke-width="8" stroke-linecap="square"/></g></svg>