<svg width="1123" height="1123" xmlns="http://www.w3.org/2000/svg"><g fill="none" fill-rule="evenodd"><path fill="#B3472D" d="M0 0h1123v1123H0z"/><g opacity=".3" style="mix-blend-mode:multiply" transform="translate(24 24)" stroke="#B3472D" stroke-width="22"><path d="M77.44 425.31V307h76.8v119.644L174.4 435l-19.2 76.8H78.4L56 435l21.44-9.69z"/><path d="M204.8 332.8l25.6-217.6C230.4 51.577 178.823 0 115.2 0 51.577 0 0 51.577 0 115.2l25.6 217.6h179.2z" fill="#FFF"/><path d="M80 150v128m80-128v128" fill="#FFF" stroke-linecap="square"/><path d="M3 110h224" fill="#FFF" stroke-linecap="round"/><path d="M281 512h230.4V0H281z"/><path d="M281 305h128M281 407h128M281 203h128" stroke-linecap="square"/><circle transform="matrix(1 0 0 -1 0 178.8)" cx="422.4" cy="89.4" r="38.4"/><path d="M640.44 988.31V870h76.8v119.644L737.4 998l-19.2 76.8h-76.8L619 998l21.44-9.69z"/><path d="M767.8 895.8l25.6-217.6c0-63.623-51.577-115.2-115.2-115.2-63.623 0-115.2 51.577-115.2 115.2l25.6 217.6h179.2z" fill="#FFF"/><path d="M643 713v128m80-128v128" fill="#FFF" stroke-linecap="square"/><path d="M566 673h224" fill="#FFF" stroke-linecap="round"/><path d="M844 1075h230.4V563H844z"/><path d="M844 868h128M844 970h128M844 766h128" stroke-linecap="square"/><circle transform="matrix(1 0 0 -1 0 1304.8)" cx="985.4" cy="652.4" r="38.4"/><g transform="translate(563 288)"><path d="M0 51h230.4" stroke-linecap="square"/><circle fill="#FFF" transform="matrix(1 0 0 -1 0 102.4)" cx="149.2" cy="51.2" r="51.2"/></g><g transform="translate(563 408)"><path d="M0 51h230.4" stroke-linecap="square"/><circle fill="#FFF" transform="matrix(1 0 0 -1 0 102.4)" cx="83.2" cy="51.2" r="51.2"/></g><g transform="translate(844)"><circle transform="matrix(1 0 0 -1 0 230.4)" cx="115.2" cy="115.2" r="115.2"/><circle transform="matrix(1 0 0 -1 0 229.6)" cx="114.8" cy="114.8" r="44.8"/></g><path d="M793.4 189.12V8H563v181.12h45.47l57.518 49.69v-49.69H793.4z" fill="#FFF" stroke-linecap="round"/><path fill="#FFF" d="M844 510.4h230.4V280H844z"/><path stroke-linecap="square" d="M930.133 355L896 394.822l34.133 39.822M989 355l34.133 39.822L989 434.644"/><g transform="translate(0 852)"><path d="M0 51h230.4" stroke-linecap="square"/><circle fill="#FFF" transform="matrix(1 0 0 -1 0 102.4)" cx="149.2" cy="51.2" r="51.2"/></g><g transform="translate(0 972)"><path d="M0 51h230.4" stroke-linecap="square"/><circle fill="#FFF" transform="matrix(1 0 0 -1 0 102.4)" cx="83.2" cy="51.2" r="51.2"/></g><g transform="translate(281 564)"><circle transform="matrix(1 0 0 -1 0 230.4)" cx="115.2" cy="115.2" r="115.2"/><circle transform="matrix(1 0 0 -1 0 229.6)" cx="114.8" cy="114.8" r="44.8"/></g><path d="M230.4 753.12V572H0v181.12h45.47l57.518 49.69v-49.69H230.4z" fill="#FFF" stroke-linecap="round"/><g><path fill="#FFF" d="M281 1074.4h230.4V844H281z"/><path stroke-linecap="square" d="M367.133 919L333 958.822l34.133 39.822M426 919l34.133 39.822L426 998.644"/></g></g></g></svg>