<svg height="171" width="168" xmlns="http://www.w3.org/2000/svg"><g fill="none" fill-rule="evenodd"><path d="M7 116l16 26 18-4 16 4 18-26z" fill="#fff"/><path d="M27 140l13 19 13-19z" fill="#53e6c1"/><g stroke="#0b63ce" stroke-width="8" transform="translate(4 4)"><path d="M53.044 138.278A35.84 35.84 0 0 0 36.008 134a35.846 35.846 0 0 0-16.508 4" stroke-linejoin="round"/><path d="M36 160l36-48V36C72 16.118 55.882 0 36 0S0 16.118 0 36v76z"/><path d="M88 160h72V0H88z" fill="#e1ebff"/><path d="M88 96h40M88 128h40M88 64h40" stroke-linecap="square"/><circle cx="132" cy="28" fill="#53e6c1" r="12" transform="matrix(1 0 0 -1 0 56)"/><path d="M24 44v64M48 44v64" stroke-linecap="square"/><path d="M0 40h72M0 110h72"/></g></g></svg>